<svg width="218" height="23" viewBox="0 0 218 23" fill="none" xmlns="http://www.w3.org/2000/svg">
<path d="M0.96 2.4H6.504V22H0.96V2.4ZM28.5643 1.224V22H23.4963V20.488C22.5069 21.664 21.0229 22.252 19.0443 22.252C17.6629 22.252 16.4029 21.9347 15.2643 21.3C14.1256 20.6467 13.2203 19.7227 12.5483 18.528C11.8949 17.3333 11.5683 15.952 11.5683 14.384C11.5683 12.816 11.8949 11.444 12.5483 10.268C13.2203 9.07333 14.1256 8.15867 15.2643 7.524C16.4029 6.88933 17.6629 6.572 19.0443 6.572C20.8549 6.572 22.2549 7.09467 23.2443 8.14V1.224H28.5643ZM20.1643 18.024C21.0789 18.024 21.8349 17.7067 22.4323 17.072C23.0296 16.4187 23.3283 15.5227 23.3283 14.384C23.3283 13.264 23.0296 12.3867 22.4323 11.752C21.8536 11.1173 21.0976 10.8 20.1643 10.8C19.2309 10.8 18.4656 11.1173 17.8683 11.752C17.2709 12.3867 16.9723 13.264 16.9723 14.384C16.9723 15.5227 17.2709 16.4187 17.8683 17.072C18.4656 17.7067 19.2309 18.024 20.1643 18.024ZM49.7391 14.44C49.7391 14.4773 49.7111 14.916 49.6551 15.756H38.6231C38.8471 16.54 39.2764 17.1467 39.9111 17.576C40.5644 17.9867 41.3764 18.192 42.3471 18.192C43.0751 18.192 43.7004 18.0893 44.2231 17.884C44.7644 17.6787 45.3057 17.3427 45.8471 16.876L48.6471 19.788C47.1724 21.4307 45.0164 22.252 42.1791 22.252C40.4057 22.252 38.8471 21.916 37.5031 21.244C36.1591 20.572 35.1137 19.6387 34.3671 18.444C33.6391 17.2493 33.2751 15.896 33.2751 14.384C33.2751 12.8907 33.6297 11.556 34.3391 10.38C35.0671 9.18533 36.0657 8.252 37.3351 7.58C38.6044 6.908 40.0324 6.572 41.6191 6.572C43.1311 6.572 44.5031 6.88933 45.7351 7.524C46.9671 8.14 47.9377 9.04533 48.6471 10.24C49.3751 11.416 49.7391 12.816 49.7391 14.44ZM41.6471 10.352C40.8257 10.352 40.1351 10.5853 39.5751 11.052C39.0337 11.5187 38.6884 12.1533 38.5391 12.956H44.7551C44.6057 12.1533 44.2511 11.5187 43.6911 11.052C43.1497 10.5853 42.4684 10.352 41.6471 10.352ZM60.4898 6.572C63.0098 6.572 64.9324 7.15067 66.2578 8.308C67.5831 9.44667 68.2458 11.2013 68.2458 13.572V22H63.2898V20.04C62.5244 21.5147 61.0311 22.252 58.8098 22.252C57.6338 22.252 56.6164 22.0467 55.7578 21.636C54.8991 21.2253 54.2458 20.6747 53.7978 19.984C53.3684 19.2747 53.1538 18.472 53.1538 17.576C53.1538 16.1387 53.7044 15.028 54.8058 14.244C55.9071 13.4413 57.6058 13.04 59.9018 13.04H62.9258C62.8324 11.4347 61.7591 10.632 59.7058 10.632C58.9778 10.632 58.2404 10.7533 57.4938 10.996C56.7471 11.22 56.1124 11.5373 55.5898 11.948L53.7978 8.336C54.6378 7.776 55.6551 7.34667 56.8498 7.048C58.0631 6.73067 59.2764 6.572 60.4898 6.572ZM60.2938 18.892C60.9098 18.892 61.4511 18.7427 61.9178 18.444C62.3844 18.1453 62.7204 17.7067 62.9258 17.128V15.812H60.6298C59.0804 15.812 58.3058 16.3253 58.3058 17.352C58.3058 17.8187 58.4831 18.192 58.8378 18.472C59.1924 18.752 59.6778 18.892 60.2938 18.892ZM83.0558 2.4C84.8291 2.4 86.3691 2.69867 87.6758 3.296C88.9824 3.87467 89.9904 4.71467 90.6998 5.816C91.4091 6.89867 91.7638 8.17733 91.7638 9.652C91.7638 11.1267 91.4091 12.4053 90.6998 13.488C89.9904 14.5707 88.9824 15.4107 87.6758 16.008C86.3691 16.5867 84.8291 16.876 83.0558 16.876H79.6398V22H74.0958V2.4H83.0558ZM82.7198 12.508C83.8584 12.508 84.7171 12.2653 85.2958 11.78C85.8744 11.276 86.1638 10.5667 86.1638 9.652C86.1638 8.73733 85.8744 8.028 85.2958 7.524C84.7171 7.02 83.8584 6.768 82.7198 6.768H79.6398V12.508H82.7198ZM96.7283 1.224H102.048V22H96.7283V1.224ZM114.214 6.572C116.734 6.572 118.656 7.15067 119.982 8.308C121.307 9.44667 121.97 11.2013 121.97 13.572V22H117.014V20.04C116.248 21.5147 114.755 22.252 112.534 22.252C111.358 22.252 110.34 22.0467 109.482 21.636C108.623 21.2253 107.97 20.6747 107.522 19.984C107.092 19.2747 106.878 18.472 106.878 17.576C106.878 16.1387 107.428 15.028 108.53 14.244C109.631 13.4413 111.33 13.04 113.626 13.04H116.65C116.556 11.4347 115.483 10.632 113.43 10.632C112.702 10.632 111.964 10.7533 111.218 10.996C110.471 11.22 109.836 11.5373 109.314 11.948L107.522 8.336C108.362 7.776 109.379 7.34667 110.574 7.048C111.787 6.73067 113 6.572 114.214 6.572ZM114.018 18.892C114.634 18.892 115.175 18.7427 115.642 18.444C116.108 18.1453 116.444 17.7067 116.65 17.128V15.812H114.354C112.804 15.812 112.03 16.3253 112.03 17.352C112.03 17.8187 112.207 18.192 112.562 18.472C112.916 18.752 113.402 18.892 114.018 18.892ZM138.04 21.384C137.592 21.664 137.041 21.8787 136.388 22.028C135.753 22.1773 135.072 22.252 134.344 22.252C132.365 22.252 130.844 21.7667 129.78 20.796C128.716 19.8253 128.184 18.3787 128.184 16.456V11.36H125.972V7.384H128.184V3.436H133.504V7.384H136.976V11.36H133.504V16.4C133.504 16.9413 133.644 17.3707 133.924 17.688C134.222 17.9867 134.614 18.136 135.1 18.136C135.716 18.136 136.257 17.9773 136.724 17.66L138.04 21.384ZM148.127 7.384H151.739V11.36H148.267V22H142.947V11.36H140.735V7.384H142.947V6.992C142.947 5.144 143.498 3.67867 144.599 2.596C145.719 1.51333 147.278 0.971999 149.275 0.971999C149.947 0.971999 150.6 1.03733 151.235 1.168C151.87 1.29867 152.392 1.49467 152.803 1.756L151.487 5.508C150.964 5.20933 150.432 5.06 149.891 5.06C149.331 5.06 148.892 5.228 148.575 5.564C148.276 5.9 148.127 6.39467 148.127 7.048V7.384ZM163.398 22.252C161.774 22.252 160.309 21.916 159.002 21.244C157.695 20.572 156.669 19.6387 155.922 18.444C155.194 17.2493 154.83 15.896 154.83 14.384C154.83 12.8907 155.194 11.5467 155.922 10.352C156.669 9.15733 157.686 8.23333 158.974 7.58C160.281 6.908 161.755 6.572 163.398 6.572C165.041 6.572 166.515 6.908 167.822 7.58C169.129 8.23333 170.146 9.15733 170.874 10.352C171.602 11.528 171.966 12.872 171.966 14.384C171.966 15.896 171.602 17.2493 170.874 18.444C170.146 19.6387 169.129 20.572 167.822 21.244C166.515 21.916 165.041 22.252 163.398 22.252ZM163.398 18.024C164.331 18.024 165.097 17.7067 165.694 17.072C166.291 16.4187 166.59 15.5227 166.59 14.384C166.59 13.264 166.291 12.3867 165.694 11.752C165.097 11.1173 164.331 10.8 163.398 10.8C162.465 10.8 161.699 11.1173 161.102 11.752C160.505 12.3867 160.206 13.264 160.206 14.384C160.206 15.5227 160.505 16.4187 161.102 17.072C161.699 17.7067 162.465 18.024 163.398 18.024ZM181.738 8.644C182.28 7.95333 182.98 7.44 183.838 7.104C184.716 6.74933 185.714 6.572 186.834 6.572V11.36C186.349 11.304 185.948 11.276 185.63 11.276C184.492 11.276 183.596 11.584 182.942 12.2C182.308 12.816 181.99 13.7587 181.99 15.028V22H176.67V6.824H181.738V8.644ZM211.038 6.572C212.905 6.572 214.389 7.132 215.49 8.252C216.61 9.372 217.17 11.0613 217.17 13.32V22H211.85V14.188C211.85 13.124 211.645 12.34 211.234 11.836C210.842 11.332 210.282 11.08 209.554 11.08C208.751 11.08 208.107 11.36 207.622 11.92C207.137 12.48 206.894 13.3293 206.894 14.468V22H201.574V14.188C201.574 12.116 200.809 11.08 199.278 11.08C198.457 11.08 197.803 11.36 197.318 11.92C196.833 12.48 196.59 13.3293 196.59 14.468V22H191.27V6.824H196.338V8.42C196.898 7.804 197.561 7.34667 198.326 7.048C199.11 6.73067 199.959 6.572 200.874 6.572C201.938 6.572 202.89 6.768 203.73 7.16C204.57 7.552 205.251 8.14933 205.774 8.952C206.371 8.18667 207.127 7.59867 208.042 7.188C208.957 6.77733 209.955 6.572 211.038 6.572Z" fill="white"/>
</svg>
